<svg xmlns="http://www.w3.org/2000/svg" viewBox="0 0 420 160" width="420" height="160" role="img" aria-labelledby="title desc">
  <title id="title">Around Here title card, case label version</title>
  <desc id="desc">A black and white file label title card reading Around Here...</desc>
  <g fill="#fff" stroke="#111" stroke-linecap="round" stroke-linejoin="round">
    <path d="M45 37 L356 37 L385 65 L385 119 L45 119 Z" stroke-width="5"/>
    <path d="M356 37 L356 65 L385 65" stroke-width="5"/>
    <path d="M63 53 L337 53" stroke-width="2" fill="none"/>
    <path d="M63 94 L360 94" stroke-width="2" fill="none"/>
    <path d="M64 105 L169 105 M190 105 L296 105 M316 105 L358 105" stroke-width="2" fill="none"/>
    <rect x="63" y="24" width="96" height="28" rx="2" stroke-width="4"/>
    <text x="111" y="43" text-anchor="middle"
          font-family="Courier New, monospace"
          font-size="15" font-weight="900" letter-spacing="0"
          fill="#111">FILED</text>
    <path d="M339 83 C345 73 359 74 365 84 C371 94 360 105 349 101 C340 98 334 90 339 83 Z" stroke-width="3"/>
    <path d="M347 89 L359 87 M352 82 L354 96" stroke-width="2" fill="none"/>
  </g>
  <text x="217" y="83" text-anchor="middle"
        font-family="Comic Sans MS, Segoe Print, Bradley Hand ITC, sans-serif"
        font-size="39" font-weight="900" letter-spacing="0"
        fill="#111">Around Here...</text>
</svg>
