<svg xmlns="http://www.w3.org/2000/svg" viewBox="0 0 560 190" width="560" height="190" role="img" aria-labelledby="title desc">
  <title id="title">Around Here Sunday comics logo with mine symbol</title>
  <desc id="desc">A black and white Sunday comics page title logo reading Around Here... with a small mine symbol.</desc>
  <defs>
    <filter id="slightInk" x="-4%" y="-4%" width="108%" height="108%">
      <feTurbulence type="fractalNoise" baseFrequency="0.65" numOctaves="2" seed="263" result="noise"/>
      <feDisplacementMap in="SourceGraphic" in2="noise" scale="0.5"/>
    </filter>
  </defs>
  <g filter="url(#slightInk)">
    <text x="28" y="105"
          font-family="'Cooper Black', Georgia, 'Times New Roman', serif"
          font-size="68" font-weight="900" letter-spacing="-1"
          fill="#fff" stroke="#111" stroke-width="8" paint-order="stroke fill">Around</text>
    <text x="252" y="148"
          font-family="'Cooper Black', Georgia, 'Times New Roman', serif"
          font-size="72" font-weight="900" letter-spacing="-1.5"
          fill="#fff" stroke="#111" stroke-width="8" paint-order="stroke fill">Here...</text>
    <g stroke="#111" stroke-linecap="round" stroke-linejoin="round">
      <path d="M143 137 H244" fill="none" stroke-width="5"/>
      <path d="M151 148 H236" fill="none" stroke-width="3"/>
      <path d="M162 148 L176 137 M205 137 L224 148" fill="none" stroke-width="3"/>
      <path d="M159 134 L159 111 L229 111 L229 134 Z" fill="#fff" stroke-width="5"/>
      <path d="M178 134 L178 122 L210 122 L210 134 Z" fill="#111" stroke-width="3"/>
      <path d="M159 111 H229 M173 111 V134 M215 111 V134 M162 121 H226" fill="none" stroke-width="3"/>
      <path d="M187 128 H202" fill="none" stroke="#fff" stroke-width="2"/>
    </g>
    <circle cx="505" cy="49" r="9" fill="#fff" stroke="#111" stroke-width="4"/>
    <circle cx="529" cy="58" r="5" fill="#111"/>
  </g>
</svg>
