<svg xmlns="http://www.w3.org/2000/svg" viewBox="0 0 560 190" width="560" height="190" role="img" aria-labelledby="title desc">
  <title id="title">Around Here Sunday comics logo with plain coffee mug</title>
  <desc id="desc">A black and white Sunday comics page title logo reading Around Here... with a small plain coffee mug.</desc>
  <defs>
    <filter id="slightInk" x="-4%" y="-4%" width="108%" height="108%">
      <feTurbulence type="fractalNoise" baseFrequency="0.65" numOctaves="2" seed="307" result="noise"/>
      <feDisplacementMap in="SourceGraphic" in2="noise" scale="0.5"/>
    </filter>
  </defs>
  <g filter="url(#slightInk)">
    <text x="28" y="105"
          font-family="'Cooper Black', Georgia, 'Times New Roman', serif"
          font-size="68" font-weight="900" letter-spacing="-1"
          fill="#fff" stroke="#111" stroke-width="8" paint-order="stroke fill">Around</text>
    <text x="252" y="148"
          font-family="'Cooper Black', Georgia, 'Times New Roman', serif"
          font-size="72" font-weight="900" letter-spacing="-1.5"
          fill="#fff" stroke="#111" stroke-width="8" paint-order="stroke fill">Here...</text>
    <g stroke="#111" stroke-linecap="round" stroke-linejoin="round">
      <path d="M143 137 H244" fill="none" stroke-width="5"/>
      <path d="M151 148 H236" fill="none" stroke-width="3"/>
      <path d="M162 148 L176 137 M205 137 L224 148" fill="none" stroke-width="3"/>
      <path d="M168 111 H219 L214 142 H174 Z" fill="#fff" stroke-width="5"/>
      <path d="M219 119 C241 116 242 138 217 136" fill="none" stroke-width="5"/>
      <path d="M177 123 H209 M177 133 H209" fill="none" stroke-width="2"/>
      <path d="M179 103 C175 97 181 94 178 88 M194 103 C190 96 198 94 194 87 M209 103 C205 97 212 95 208 89" fill="none" stroke-width="3"/>
    </g>
    <circle cx="505" cy="49" r="9" fill="#fff" stroke="#111" stroke-width="4"/>
    <circle cx="529" cy="58" r="5" fill="#111"/>
  </g>
</svg>
